<svg xmlns="http://www.w3.org/2000/svg" viewBox="0 0 64 64" role="img" aria-label="Pelota">
  <circle cx="32" cy="32" r="30" fill="#ffffff"/>
  <circle cx="32" cy="32" r="28" fill="#0f766e"/>
  <path d="M32 12l9 7-3 11H26l-3-11z" fill="#ffffff"/>
  <path d="M20 20l6 4-2 8-8 0-3-8z" fill="#e2e8f0"/>
  <path d="M44 20l3 4-3 8-8 0-2-8z" fill="#e2e8f0"/>
  <path d="M17 34l6 1 5 9-5 6-8-4z" fill="#e2e8f0"/>
  <path d="M47 34l7 2-4 7-8 4-5-6 5-9z" fill="#e2e8f0"/>
  <path d="M26 43h12l4 8-10 5-10-5z" fill="#ffffff"/>
</svg>
